<svg xmlns="http://www.w3.org/2000/svg" viewBox="0 0 1200 520" font-family="'Segoe UI', 'Helvetica Neue', Arial, sans-serif">
  <defs>
    <filter id="shadow" x="-4%" y="-4%" width="108%" height="112%">
      <feDropShadow dx="2" dy="3" stdDeviation="3" flood-opacity="0.12"/>
    </filter>
    <marker id="arrow" viewBox="0 0 10 6" refX="10" refY="3" markerWidth="10" markerHeight="6" orient="auto-start-reverse">
      <path d="M0,0 L10,3 L0,6 Z" fill="#64748b"/>
    </marker>
    <linearGradient id="bgGrad" x1="0%" y1="0%" x2="100%" y2="100%">
      <stop offset="0%" style="stop-color:#0f172a"/>
      <stop offset="100%" style="stop-color:#1e293b"/>
    </linearGradient>
  </defs>

  <rect width="1200" height="520" rx="16" fill="url(#bgGrad)"/>

  <text x="600" y="38" text-anchor="middle" font-size="22" font-weight="700" fill="#f1f5f9">Nochi — System Architecture</text>
  <text x="600" y="58" text-anchor="middle" font-size="12" fill="#94a3b8">SwiftUI + AppKit Hybrid | Menu Bar App | Notch Overlay</text>

  <!-- ==================== App Entry ==================== -->
  <rect x="30" y="80" width="160" height="120" rx="10" fill="#1e3a5f" stroke="#3b82f6" stroke-width="1.5" filter="url(#shadow)"/>
  <text x="110" y="102" text-anchor="middle" font-size="10" font-weight="700" fill="#60a5fa" letter-spacing="1">APP ENTRY</text>
  <rect x="44" y="114" width="132" height="30" rx="6" fill="#3b82f6" filter="url(#shadow)"/>
  <text x="110" y="134" text-anchor="middle" font-size="10" font-weight="600" fill="#fff">NochiApp</text>
  <rect x="44" y="152" width="132" height="30" rx="6" fill="#1e40af" filter="url(#shadow)"/>
  <text x="110" y="172" text-anchor="middle" font-size="10" font-weight="600" fill="#fff">AppDelegate</text>

  <!-- Arrow to Model -->
  <line x1="190" y1="160" x2="240" y2="160" stroke="#3b82f6" stroke-width="2" marker-end="url(#arrow)"/>

  <!-- ==================== TranslatorModel ==================== -->
  <rect x="250" y="80" width="220" height="200" rx="10" fill="#1a2e1a" stroke="#22c55e" stroke-width="1.5" filter="url(#shadow)"/>
  <text x="360" y="102" text-anchor="middle" font-size="10" font-weight="700" fill="#4ade80" letter-spacing="1">TRANSLATOR MODEL</text>
  <text x="360" y="118" text-anchor="middle" font-size="8" fill="#64748b">@MainActor ObservableObject</text>

  <rect x="264" y="128" width="192" height="26" rx="6" fill="#166534" filter="url(#shadow)"/>
  <text x="360" y="146" text-anchor="middle" font-size="9" font-weight="600" fill="#fff">Pipeline orchestration</text>
  <rect x="264" y="160" width="192" height="26" rx="6" fill="#15803d" filter="url(#shadow)"/>
  <text x="360" y="178" text-anchor="middle" font-size="9" font-weight="600" fill="#fff">Real-time transcript handling</text>
  <rect x="264" y="192" width="192" height="26" rx="6" fill="#14532d" filter="url(#shadow)"/>
  <text x="360" y="210" text-anchor="middle" font-size="9" font-weight="600" fill="#fff">Translation debounce</text>
  <rect x="264" y="224" width="192" height="26" rx="6" fill="#052e16" filter="url(#shadow)"/>
  <text x="360" y="242" text-anchor="middle" font-size="9" font-weight="600" fill="#fff">UserDefaults persistence</text>

  <!-- ==================== Audio Capture ==================== -->
  <rect x="250" y="310" width="220" height="100" rx="10" fill="#1e293b" stroke="#6366f1" stroke-width="1.5" filter="url(#shadow)"/>
  <text x="360" y="332" text-anchor="middle" font-size="10" font-weight="700" fill="#818cf8" letter-spacing="1">AUDIO CAPTURE</text>
  <rect x="264" y="344" width="192" height="26" rx="6" fill="#4338ca" filter="url(#shadow)"/>
  <text x="360" y="362" text-anchor="middle" font-size="9" font-weight="600" fill="#fff">ScreenCaptureKit SCStream</text>
  <rect x="264" y="376" width="192" height="26" rx="6" fill="#3730a3" filter="url(#shadow)"/>
  <text x="360" y="394" text-anchor="middle" font-size="9" font-weight="600" fill="#fff">CMSampleBuffer -> PCMBuffer</text>

  <!-- Arrow Model <-> Audio -->
  <line x1="360" y1="280" x2="360" y2="310" stroke="#6366f1" stroke-width="2" marker-end="url(#arrow)"/>

  <!-- ==================== Speech Recognizers ==================== -->
  <rect x="520" y="310" width="220" height="180" rx="10" fill="#2a1f3d" stroke="#a855f7" stroke-width="1.5" filter="url(#shadow)"/>
  <text x="630" y="332" text-anchor="middle" font-size="10" font-weight="700" fill="#c084fc" letter-spacing="1">SPEECH ENGINES</text>

  <rect x="534" y="344" width="192" height="40" rx="6" fill="#6d28d9" filter="url(#shadow)"/>
  <text x="630" y="362" text-anchor="middle" font-size="10" font-weight="600" fill="#fff">Apple Speech</text>
  <text x="630" y="376" text-anchor="middle" font-size="8" fill="#ddd6fe">SFSpeechRecognizer + auto-restart</text>

  <rect x="534" y="392" width="192" height="40" rx="6" fill="#5b21b6" filter="url(#shadow)"/>
  <text x="630" y="410" text-anchor="middle" font-size="10" font-weight="600" fill="#fff">WhisperKit</text>
  <text x="630" y="424" text-anchor="middle" font-size="8" fill="#ddd6fe">CoreML, 3s chunked transcription</text>

  <rect x="534" y="444" width="192" height="30" rx="6" fill="#0f172a" stroke="#a855f7" stroke-width="1"/>
  <text x="630" y="464" text-anchor="middle" font-size="9" fill="#94a3b8">Protocol: SpeechRecognizerProtocol</text>

  <!-- Arrow Audio -> Speech -->
  <line x1="470" y1="360" x2="520" y2="360" stroke="#a855f7" stroke-width="2" marker-end="url(#arrow)"/>

  <!-- ==================== Translation ==================== -->
  <rect x="520" y="80" width="220" height="140" rx="10" fill="#2d1f0e" stroke="#f97316" stroke-width="1.5" filter="url(#shadow)"/>
  <text x="630" y="102" text-anchor="middle" font-size="10" font-weight="700" fill="#fb923c" letter-spacing="1">TRANSLATION</text>

  <rect x="534" y="114" width="192" height="36" rx="6" fill="#c2410c" filter="url(#shadow)"/>
  <text x="630" y="132" text-anchor="middle" font-size="10" font-weight="600" fill="#fff">TranslationSession</text>
  <text x="630" y="146" text-anchor="middle" font-size="8" fill="#fed7aa">Apple Translation framework</text>

  <rect x="534" y="158" width="192" height="26" rx="6" fill="#9a3412" filter="url(#shadow)"/>
  <text x="630" y="176" text-anchor="middle" font-size="9" font-weight="600" fill="#fff">On-device, 20+ languages</text>
  <rect x="534" y="190" width="192" height="22" rx="6" fill="#0f172a" stroke="#f97316" stroke-width="1"/>
  <text x="630" y="205" text-anchor="middle" font-size="9" fill="#94a3b8">Debounced partial translation</text>

  <!-- Arrow Model -> Translation -->
  <line x1="470" y1="160" x2="520" y2="160" stroke="#f97316" stroke-width="2" marker-end="url(#arrow)"/>

  <!-- ==================== UI Layer ==================== -->
  <rect x="800" y="80" width="370" height="410" rx="12" fill="none" stroke="#64748b" stroke-width="1.5" stroke-dasharray="8,4"/>
  <text x="820" y="100" font-size="10" font-weight="700" fill="#94a3b8" letter-spacing="1">UI LAYER</text>

  <!-- Overlay -->
  <rect x="820" y="114" width="330" height="130" rx="10" fill="#1e293b" stroke="#f97316" stroke-width="1.5" filter="url(#shadow)"/>
  <text x="985" y="136" text-anchor="middle" font-size="10" font-weight="700" fill="#fb923c" letter-spacing="1">NOTCH OVERLAY</text>
  <rect x="834" y="148" width="302" height="26" rx="6" fill="#451a03" filter="url(#shadow)"/>
  <text x="985" y="166" text-anchor="middle" font-size="9" font-weight="600" fill="#fff">OverlayWindowController (NSPanel)</text>
  <rect x="834" y="180" width="302" height="26" rx="6" fill="#78350f" filter="url(#shadow)"/>
  <text x="985" y="198" text-anchor="middle" font-size="9" font-weight="600" fill="#fff">OverlayView (AppleNotchShape + Subtitles)</text>
  <rect x="834" y="212" width="302" height="22" rx="6" fill="#0f172a" stroke="#f97316" stroke-width="1"/>
  <text x="985" y="228" text-anchor="middle" font-size="9" fill="#94a3b8">Language picker + control buttons + font controls</text>

  <!-- Settings -->
  <rect x="820" y="260" width="160" height="80" rx="10" fill="#1e293b" stroke="#3b82f6" stroke-width="1" filter="url(#shadow)"/>
  <text x="900" y="282" text-anchor="middle" font-size="10" font-weight="700" fill="#60a5fa">Settings</text>
  <text x="900" y="298" text-anchor="middle" font-size="8" fill="#64748b">ContentView</text>
  <text x="900" y="312" text-anchor="middle" font-size="8" fill="#64748b">Languages, engine,</text>
  <text x="900" y="324" text-anchor="middle" font-size="8" fill="#64748b">display, permissions</text>

  <!-- Menu Bar -->
  <rect x="990" y="260" width="160" height="80" rx="10" fill="#1e293b" stroke="#22c55e" stroke-width="1" filter="url(#shadow)"/>
  <text x="1070" y="282" text-anchor="middle" font-size="10" font-weight="700" fill="#4ade80">Menu Bar</text>
  <text x="1070" y="298" text-anchor="middle" font-size="8" fill="#64748b">NSStatusItem</text>
  <text x="1070" y="312" text-anchor="middle" font-size="8" fill="#64748b">Start/Stop, overlay,</text>
  <text x="1070" y="324" text-anchor="middle" font-size="8" fill="#64748b">display mode, quit</text>

  <!-- Hotkeys -->
  <rect x="820" y="356" width="330" height="60" rx="10" fill="#1e293b" stroke="#eab308" stroke-width="1" filter="url(#shadow)"/>
  <text x="985" y="378" text-anchor="middle" font-size="10" font-weight="700" fill="#fbbf24">GLOBAL HOTKEYS</text>
  <text x="985" y="398" text-anchor="middle" font-size="9" fill="#94a3b8">Carbon Events API | Opt+Cmd+L (listen) O (overlay) D (display) +/- (font)</text>

  <!-- Screen Selection -->
  <rect x="820" y="426" width="330" height="44" rx="8" fill="#0f172a" stroke="#334155" stroke-width="1"/>
  <text x="985" y="444" text-anchor="middle" font-size="9" fill="#64748b">ScreenSelection: auto-detect built-in display with notch</text>
  <text x="985" y="458" text-anchor="middle" font-size="9" fill="#64748b">Multi-monitor support via CGDirectDisplayID</text>

  <!-- Arrows to UI -->
  <line x1="740" y1="140" x2="800" y2="140" stroke="#64748b" stroke-width="1.5" stroke-dasharray="4,3" marker-end="url(#arrow)"/>
  <text x="770" y="134" font-size="8" fill="#64748b">@Published</text>
</svg>
